<svg width="426" height="377" viewBox="0 0 426 377" fill="none" xmlns="http://www.w3.org/2000/svg">
<mask id="mask0_1373_3106" style="mask-type:alpha" maskUnits="userSpaceOnUse" x="19" y="0" width="388" height="282">
<path d="M406.694 91.2189V108.411C406.694 115.898 403.643 123.247 398.375 128.515L253.21 273.541C247.941 278.81 240.593 281.86 233.106 281.86H192.898C185.411 281.86 178.063 278.81 172.794 273.541L27.6294 128.377C22.3608 123.108 19.3105 115.76 19.3105 108.273V91.0803C19.3105 83.5933 22.3608 76.2449 27.6294 70.9763L89.6052 9.1392C94.8738 3.87057 102.084 0.820312 109.709 0.820312H136.33C143.817 0.820312 151.165 3.87057 156.434 9.1392L193.037 45.7423C204.129 56.8342 222.153 56.8342 233.245 45.7423L269.848 9.1392C275.116 3.87057 282.465 0.820312 289.952 0.820312H316.572C324.059 0.820312 331.408 3.87057 336.676 9.1392L398.652 71.1149C403.643 76.3836 406.694 83.5933 406.694 91.2189Z" fill="#D9D9D9"/>
</mask>
<g mask="url(#mask0_1373_3106)">
<path fill-rule="evenodd" clip-rule="evenodd" d="M333.749 6.59743C334.78 7.37502 335.759 8.22405 336.675 9.14015L398.651 71.1159C403.642 76.3845 406.693 83.5942 406.693 91.2199V108.412C406.693 115.899 403.642 123.248 398.374 128.516L381.227 145.647C381.684 147.098 381.931 148.643 381.931 150.246C381.931 158.688 375.087 165.532 366.645 165.532C365.037 165.532 363.487 165.283 362.032 164.823L253.209 273.542C247.94 278.811 240.592 281.861 233.105 281.861H201.249C198.362 288.751 191.554 293.592 183.616 293.592C173.061 293.592 164.505 285.036 164.505 274.481C164.505 271.765 165.072 269.182 166.093 266.842L101.387 202.136C100.01 202.544 98.5512 202.763 97.0415 202.763C88.5994 202.763 81.7557 195.919 81.7557 187.477C81.7557 185.967 81.9745 184.509 82.3822 183.131L27.6285 128.378C22.3598 123.109 19.3096 115.761 19.3096 108.274V91.0812C19.3096 83.5942 22.3598 76.2459 27.6285 70.9772L38.4888 60.1412C36.3289 56.3019 35.0968 51.8707 35.0968 47.1517C35.0968 32.4996 46.9747 20.6217 61.6268 20.6217C66.367 20.6217 70.8168 21.8649 74.668 24.0429L89.6042 9.14015C94.8728 3.87152 102.083 0.821259 109.708 0.821259H136.329C143.816 0.821259 151.164 3.87152 156.433 9.14015L193.036 45.7433C204.128 56.8351 222.152 56.8351 233.244 45.7433L269.847 9.14015C270.464 8.52306 271.11 7.9364 271.781 7.38151C272.68 -8.96517 286.22 -21.9434 302.791 -21.9434C319.096 -21.9434 332.467 -9.37823 333.749 6.59743ZM192.971 257.813C190.206 256.258 187.015 255.371 183.616 255.371C181.484 255.371 179.434 255.72 177.519 256.364L118.783 197.628L209.088 225.588C209.117 222.397 210.082 219.429 211.721 216.945L112.271 186.154C112.231 185.689 112.17 185.229 112.09 184.777L155.832 166.615C154.071 164.198 152.889 161.332 152.489 158.221L107.911 176.729C107.137 175.947 106.28 175.247 105.353 174.646L124.703 113.183C121.764 112.124 119.047 110.599 116.643 108.695L97.3242 170.062L74.4921 85.597L70.8282 72.0427C75.1454 70.4462 78.9336 67.7586 81.8581 64.3147L106.837 78.4096C107.674 75.4474 108.975 72.68 110.657 70.1911L86.4508 56.5323C87.5534 53.6159 88.1569 50.4543 88.1569 47.1517C88.1569 42.8776 87.1461 38.8395 85.3506 35.2635L100.544 20.1043L100.55 20.0982L100.556 20.092C102.948 17.7006 106.229 16.3096 109.708 16.3096H136.329C139.709 16.3096 143.118 17.729 145.481 20.092L175.632 50.2433V93.9882L162.77 90.3903C162.324 93.4484 161.395 96.3497 160.062 99.0144L178.918 104.289L178.932 104.293L223.206 116.839C223.205 116.782 223.204 116.726 223.203 116.669C223.202 116.605 223.202 116.54 223.202 116.475C223.202 113.408 224.082 110.545 225.604 108.128L186.446 97.0316L184.667 96.5275V59.0819C201.915 73.7947 227.892 72.9992 244.196 56.6951L276.02 24.8703C278.09 28.3786 280.829 31.4445 284.062 33.8923L242.532 101.208C245.576 101.931 248.277 103.541 250.346 105.75L251.618 103.688L291.993 38.2441C295.356 39.4913 298.994 40.1727 302.791 40.1727C304.561 40.1727 306.297 40.0246 307.986 39.7402L317.199 81.0066C319.85 79.6657 322.802 78.832 325.926 78.633L316.616 36.9335C322.217 34.1449 326.856 29.715 329.905 24.2735L387.523 81.8916C389.821 84.3791 391.204 87.7595 391.204 91.2199V108.412C391.204 111.79 389.787 115.196 387.427 117.559L387.422 117.564L369.703 135.266C368.715 135.065 367.692 134.96 366.645 134.96C364.973 134.96 363.364 135.228 361.858 135.724L344.574 115.867C342.606 118.17 340.183 120.073 337.444 121.436L354.471 140.999C352.767 143.24 351.667 145.966 351.414 148.934L276.534 168.608C277.686 171.336 278.326 174.332 278.337 177.476L344.98 159.966L242.262 262.585L242.257 262.59C239.894 264.953 236.486 266.373 233.105 266.373H200.926C200.535 265.54 200.086 264.741 199.584 263.979L219.61 240.762C216.689 239.701 214.165 237.812 212.322 235.379L192.971 257.813ZM49.6855 70.8488C53.2746 72.661 57.3315 73.6818 61.6268 73.6818C61.7219 73.6818 61.8169 73.6813 61.9117 73.6803L64.8672 84.614L86.7605 165.606L38.5803 117.426C36.2173 115.063 34.7979 111.654 34.7979 108.274V91.0812C34.7979 87.7032 36.2151 84.2975 38.5748 81.9347L38.5803 81.9291L49.6855 70.8488ZM274.25 106L304.783 100.987L304.783 101.101L304.782 101.189C304.782 104.261 305.395 107.19 306.505 109.86L254.467 118.403C254.545 117.771 254.585 117.128 254.585 116.475C254.585 113.968 253.996 111.598 252.951 109.496L274.25 106ZM223.558 119.814L183.479 142.907C185.621 145.034 187.238 147.689 188.121 150.66L227.944 127.715C225.779 125.606 224.222 122.877 223.558 119.814ZM238.159 132.15L245.131 156.899C247.792 155.585 250.743 154.77 253.863 154.576L246.928 129.956C244.578 131.36 241.83 132.167 238.893 132.167C238.647 132.167 238.402 132.161 238.159 132.15ZM248.27 199.482L237.843 216.136C236.006 213.696 233.487 211.799 230.569 210.729L240.371 195.072C242.66 197.027 245.337 198.54 248.27 199.482ZM185.051 167.055L219.701 210.681C216.779 211.722 214.248 213.591 212.392 216.005L177.926 172.611C180.743 171.378 183.19 169.455 185.051 167.055ZM156.328 86.2156C156.328 98.3169 146.518 108.127 134.417 108.127C122.315 108.127 112.505 98.3169 112.505 86.2156C112.505 74.1144 122.315 64.3044 134.417 64.3044C146.518 64.3044 156.328 74.1144 156.328 86.2156ZM182.668 155.87C182.668 162.531 177.268 167.93 170.607 167.93C163.946 167.93 158.546 162.531 158.546 155.87C158.546 149.208 163.946 143.809 170.607 143.809C177.268 143.809 182.668 149.208 182.668 155.87ZM225.068 235.4C230.405 235.4 234.732 231.074 234.732 225.737C234.732 220.4 230.405 216.074 225.068 216.074C219.732 216.074 215.405 220.4 215.405 225.737C215.405 231.074 219.732 235.4 225.068 235.4ZM248.557 116.476C248.557 121.812 244.231 126.139 238.894 126.139C233.557 126.139 229.23 121.812 229.23 116.476C229.23 111.139 233.557 106.812 238.894 106.812C244.231 106.812 248.557 111.139 248.557 116.476ZM342.672 101.188C342.672 109.63 335.828 116.474 327.386 116.474C318.943 116.474 312.099 109.63 312.099 101.188C312.099 92.7454 318.943 85.9015 327.386 85.9015C335.828 85.9015 342.672 92.7454 342.672 101.188ZM255.314 193.973C264.382 193.973 271.733 186.622 271.733 177.554C271.733 168.486 264.382 161.134 255.314 161.134C246.245 161.134 238.894 168.486 238.894 177.554C238.894 186.622 246.245 193.973 255.314 193.973Z" fill="white"/>
<path fill-rule="evenodd" clip-rule="evenodd" d="M333.749 6.59743C334.78 7.37502 335.759 8.22405 336.675 9.14015L398.651 71.1159C403.642 76.3845 406.693 83.5942 406.693 91.2199V108.412C406.693 115.899 403.642 123.248 398.374 128.516L381.227 145.647C381.684 147.098 381.931 148.643 381.931 150.246C381.931 158.688 375.087 165.532 366.645 165.532C365.037 165.532 363.487 165.283 362.032 164.823L253.209 273.542C247.94 278.811 240.592 281.861 233.105 281.861H201.249C198.362 288.751 191.554 293.592 183.616 293.592C173.061 293.592 164.505 285.036 164.505 274.481C164.505 271.765 165.072 269.182 166.093 266.842L101.387 202.136C100.01 202.544 98.5512 202.763 97.0415 202.763C88.5994 202.763 81.7557 195.919 81.7557 187.477C81.7557 185.967 81.9745 184.509 82.3822 183.131L27.6285 128.378C22.3598 123.109 19.3096 115.761 19.3096 108.274V91.0812C19.3096 83.5942 22.3598 76.2459 27.6285 70.9772L38.4888 60.1412C36.3289 56.3019 35.0968 51.8707 35.0968 47.1517C35.0968 32.4996 46.9747 20.6217 61.6268 20.6217C66.367 20.6217 70.8168 21.8649 74.668 24.0429L89.6042 9.14015C94.8728 3.87152 102.083 0.821259 109.708 0.821259H136.329C143.816 0.821259 151.164 3.87152 156.433 9.14015L193.036 45.7433C204.128 56.8351 222.152 56.8351 233.244 45.7433L269.847 9.14015C270.464 8.52306 271.11 7.9364 271.781 7.38151C272.68 -8.96517 286.22 -21.9434 302.791 -21.9434C319.096 -21.9434 332.467 -9.37823 333.749 6.59743ZM192.971 257.813C190.206 256.258 187.015 255.371 183.616 255.371C181.484 255.371 179.434 255.72 177.519 256.364L118.783 197.628L209.088 225.588C209.117 222.397 210.082 219.429 211.721 216.945L112.271 186.154C112.231 185.689 112.17 185.229 112.09 184.777L155.832 166.615C154.071 164.198 152.889 161.332 152.489 158.221L107.911 176.729C107.137 175.947 106.28 175.247 105.353 174.646L124.703 113.183C121.764 112.124 119.047 110.599 116.643 108.695L97.3242 170.062L74.4921 85.597L70.8282 72.0427C75.1454 70.4462 78.9336 67.7586 81.8581 64.3147L106.837 78.4096C107.674 75.4474 108.975 72.68 110.657 70.1911L86.4508 56.5323C87.5534 53.6159 88.1569 50.4543 88.1569 47.1517C88.1569 42.8776 87.1461 38.8395 85.3506 35.2635L100.544 20.1043L100.55 20.0982L100.556 20.092C102.948 17.7006 106.229 16.3096 109.708 16.3096H136.329C139.709 16.3096 143.118 17.729 145.481 20.092L175.632 50.2433V93.9882L162.77 90.3903C162.324 93.4484 161.395 96.3497 160.062 99.0144L178.918 104.289L178.932 104.293L223.206 116.839C223.205 116.782 223.204 116.726 223.203 116.669C223.202 116.605 223.202 116.54 223.202 116.475C223.202 113.408 224.082 110.545 225.604 108.128L186.446 97.0316L184.667 96.5275V59.0819C201.915 73.7947 227.892 72.9992 244.196 56.6951L276.02 24.8703C278.09 28.3786 280.829 31.4445 284.062 33.8923L242.532 101.208C245.576 101.931 248.277 103.541 250.346 105.75L251.618 103.688L291.993 38.2441C295.356 39.4913 298.994 40.1727 302.791 40.1727C304.561 40.1727 306.297 40.0246 307.986 39.7402L317.199 81.0066C319.85 79.6657 322.802 78.832 325.926 78.633L316.616 36.9335C322.217 34.1449 326.856 29.715 329.905 24.2735L387.523 81.8916C389.821 84.3791 391.204 87.7595 391.204 91.2199V108.412C391.204 111.79 389.787 115.196 387.427 117.559L387.422 117.564L369.703 135.266C368.715 135.065 367.692 134.96 366.645 134.96C364.973 134.96 363.364 135.228 361.858 135.724L344.574 115.867C342.606 118.17 340.183 120.073 337.444 121.436L354.471 140.999C352.767 143.24 351.667 145.966 351.414 148.934L276.534 168.608C277.686 171.336 278.326 174.332 278.337 177.476L344.98 159.966L242.262 262.585L242.257 262.59C239.894 264.953 236.486 266.373 233.105 266.373H200.926C200.535 265.54 200.086 264.741 199.584 263.979L219.61 240.762C216.689 239.701 214.165 237.812 212.322 235.379L192.971 257.813ZM49.6855 70.8488C53.2746 72.661 57.3315 73.6818 61.6268 73.6818C61.7219 73.6818 61.8169 73.6813 61.9117 73.6803L64.8672 84.614L86.7605 165.606L38.5803 117.426C36.2173 115.063 34.7979 111.654 34.7979 108.274V91.0812C34.7979 87.7032 36.2151 84.2975 38.5748 81.9347L38.5803 81.9291L49.6855 70.8488ZM274.25 106L304.783 100.987L304.783 101.101L304.782 101.189C304.782 104.261 305.395 107.19 306.505 109.86L254.467 118.403C254.545 117.771 254.585 117.128 254.585 116.475C254.585 113.968 253.996 111.598 252.951 109.496L274.25 106ZM223.558 119.814L183.479 142.907C185.621 145.034 187.238 147.689 188.121 150.66L227.944 127.715C225.779 125.606 224.222 122.877 223.558 119.814ZM238.159 132.15L245.131 156.899C247.792 155.585 250.743 154.77 253.863 154.576L246.928 129.956C244.578 131.36 241.83 132.167 238.893 132.167C238.647 132.167 238.402 132.161 238.159 132.15ZM248.27 199.482L237.843 216.136C236.006 213.696 233.487 211.799 230.569 210.729L240.371 195.072C242.66 197.027 245.337 198.54 248.27 199.482ZM185.051 167.055L219.701 210.681C216.779 211.722 214.248 213.591 212.392 216.005L177.926 172.611C180.743 171.378 183.19 169.455 185.051 167.055ZM156.328 86.2156C156.328 98.3169 146.518 108.127 134.417 108.127C122.315 108.127 112.505 98.3169 112.505 86.2156C112.505 74.1144 122.315 64.3044 134.417 64.3044C146.518 64.3044 156.328 74.1144 156.328 86.2156ZM182.668 155.87C182.668 162.531 177.268 167.93 170.607 167.93C163.946 167.93 158.546 162.531 158.546 155.87C158.546 149.208 163.946 143.809 170.607 143.809C177.268 143.809 182.668 149.208 182.668 155.87ZM225.068 235.4C230.405 235.4 234.732 231.074 234.732 225.737C234.732 220.4 230.405 216.074 225.068 216.074C219.732 216.074 215.405 220.4 215.405 225.737C215.405 231.074 219.732 235.4 225.068 235.4ZM248.557 116.476C248.557 121.812 244.231 126.139 238.894 126.139C233.557 126.139 229.23 121.812 229.23 116.476C229.23 111.139 233.557 106.812 238.894 106.812C244.231 106.812 248.557 111.139 248.557 116.476ZM342.672 101.188C342.672 109.63 335.828 116.474 327.386 116.474C318.943 116.474 312.099 109.63 312.099 101.188C312.099 92.7454 318.943 85.9015 327.386 85.9015C335.828 85.9015 342.672 92.7454 342.672 101.188ZM255.314 193.973C264.382 193.973 271.733 186.622 271.733 177.554C271.733 168.486 264.382 161.134 255.314 161.134C246.245 161.134 238.894 168.486 238.894 177.554C238.894 186.622 246.245 193.973 255.314 193.973Z" fill="url(#paint0_linear_1373_3106)"/>
</g>
<path d="M53.0859 335.309H60.1891V375.667H53.0859V335.309Z" fill="white"/>
<path d="M114.14 335.309L133.512 375.667H125.924L108.328 338.013H111.072L93.4761 375.667H85.8887L105.261 335.309H114.14ZM95.4133 366.425V360.573H123.624V366.425H95.4133Z" fill="white"/>
<path d="M28.5879 335.309L47.9601 375.667H40.3726L22.7763 338.013H25.5207L7.92433 375.667H0.336914L19.709 335.309H28.5879ZM9.86154 366.425V360.573H38.0722V366.425H9.86154Z" fill="white"/>
<path d="M178.754 359.686C178.391 362.995 177.221 365.901 175.283 368.444C173.346 370.986 170.763 372.923 167.615 374.336C164.467 375.748 160.835 376.435 156.799 376.435C152.279 376.435 148.324 375.547 144.893 373.811C141.503 372.035 138.839 369.614 136.943 366.466C135.046 363.318 134.077 359.686 134.077 355.529C134.077 351.372 135.046 347.699 136.943 344.592C138.839 341.444 141.503 339.022 144.893 337.246C148.283 335.471 152.279 334.623 156.799 334.623C160.835 334.623 164.467 335.309 167.615 336.722C170.763 338.134 173.346 340.071 175.283 342.574C177.221 345.076 178.391 348.022 178.754 351.331H171.611C171.207 349.192 170.36 347.336 169.068 345.802C167.777 344.269 166.082 343.058 163.983 342.21C161.884 341.363 159.503 340.959 156.759 340.959C153.611 340.959 150.866 341.565 148.566 342.735C146.265 343.906 144.449 345.601 143.198 347.78C141.947 349.959 141.301 352.542 141.301 355.529C141.301 358.515 141.947 361.098 143.198 363.278C144.449 365.457 146.225 367.152 148.566 368.322C150.907 369.493 153.611 370.098 156.759 370.098C159.503 370.098 161.884 369.695 163.983 368.847C166.082 368.04 167.777 366.829 169.068 365.255C170.36 363.681 171.247 361.825 171.611 359.686H178.754Z" fill="white"/>
<path d="M207.529 335.309L226.901 375.667H219.314L201.718 338.013H204.462L186.866 375.667H179.278L198.65 335.309H207.529ZM188.803 366.425V360.573H217.014V366.425H188.803Z" fill="white"/>
<path d="M250.027 335.309C254.628 335.309 258.664 336.156 262.094 337.851C265.565 339.546 268.269 341.887 270.207 344.914C272.144 347.941 273.112 351.452 273.112 355.488C273.112 359.524 272.144 363.035 270.207 366.062C268.269 369.089 265.565 371.47 262.094 373.125C258.624 374.82 254.588 375.667 250.027 375.667H231.785V335.309H250.027ZM238.888 373.205L234.973 369.452H250.512C253.579 369.452 256.283 368.887 258.624 367.717C260.924 366.546 262.74 364.932 263.991 362.833C265.283 360.734 265.888 358.313 265.888 355.528C265.888 352.744 265.242 350.282 263.991 348.223C262.7 346.125 260.924 344.51 258.624 343.34C256.323 342.17 253.619 341.605 250.512 341.605H234.973L238.888 337.851V373.205Z" fill="white"/>
<path d="M288.367 355.488L285.502 373.528L282.112 369.533H313.43V375.667H278.237L281.466 355.488L278.237 335.309H313.148V341.443H282.112L285.502 337.448L288.367 355.488ZM311.856 352.542V358.474H283.645V352.542H311.856Z" fill="white"/>
<path d="M375.138 335.31V375.669H368.358V337.449L370.578 337.57L351.811 375.669H344.224L325.457 337.61L327.677 337.489V375.628H320.896V335.27H331.753L349.834 372.561H346.282L364.322 335.27H375.138V335.31Z" fill="white"/>
<path d="M380.506 335.309H388.537L405.004 355.972H401.169L417.636 335.309H425.667L405.367 360.775L400.847 360.815L380.506 335.309ZM399.555 375.667V356.416H406.658V375.667H399.555Z" fill="white"/>
<defs>
<linearGradient id="paint0_linear_1373_3106" x1="125.825" y1="-11.9137" x2="388.801" y2="220.752" gradientUnits="userSpaceOnUse">
<stop stop-color="#2A67D9"/>
<stop offset="1" stop-color="#163773"/>
</linearGradient>
</defs>
</svg>
